<svg xmlns="http://www.w3.org/2000/svg" version="1.1" xmlns:xlink="http://www.w3.org/1999/xlink" viewBox="0 0 9.701518346750214 3.8040371455783397"><g transform="matrix(0.771688217037074,0,0,0.771688217037074,3.9367303586698497,1.4736390097475494)"><rect width="10.82698130444426" height="10.82698130444426" x="-4.2290371455783395" y="-4.8583706522221295" fill="#343432"></rect><g transform="matrix(1,0,0,1,0,0)" clip-path="url(#SvgjsClipPath82920)"><path d=" M -3.103574187884293 -0.7752976429888874 L -0.4249999999999998 -0.7752976429888874 L -0.4249999999999998 1.8855376429888877 L -3.103574187884293 1.8855376429888877 Z" fill="#aac527" transform="matrix(1,0,0,1,0,0)" fill-rule="nonzero" mask="url(#maskedMgText-857ff593-b446-47cc-91e0-5589b7855269)"></path></g><g><path d=" M 1.128744 0.24055199999999988 L 0.749412 0.24055199999999988 L 0.596754 1.11024 L 0.317652 1.11024 L 0.47031 0.24055199999999988 L 0.089436 0.24055199999999988 L 0.132612 0 L 1.17192 0 L 1.128744 0.24055199999999988 M 1.5620467529296875 1.11024 L 1.5712987529296876 0.8681459999999999 L 1.3137847529296875 0.8681459999999999 L 1.2382267529296875 1.11024 L 0.9437047529296875 1.11024 L 1.3399987529296875 0 L 1.8488587529296874 0 L 1.8550267529296876 1.11024 L 1.5620467529296875 1.11024 M 1.4988247529296874 0.2698499999999999 L 1.3770067529296874 0.6615179999999998 L 1.5790087529296875 0.6615179999999998 L 1.5959707529296874 0.2698499999999999 L 1.4988247529296874 0.2698499999999999 M 2.6445172001953123 0 Q 2.8203052001953126 0 2.8943212001953125 0.07709999999999995 Q 2.9498332001953127 0.13569599999999993 2.9498332001953127 0.2251319999999999 Q 2.9498332001953127 0.25597199999999987 2.9436652001953125 0.28989599999999993 L 2.9297872001953125 0.3639119999999999 Q 2.9128252001953125 0.45180599999999993 2.8642522001953123 0.5011499999999999 Q 2.8156792001953126 0.5504939999999999 2.7786712001953124 0.5504939999999999 L 2.7771292001953123 0.5628299999999999 Q 2.8203052001953126 0.5628299999999999 2.8650232001953126 0.6106319999999998 Q 2.9097412001953122 0.658434 2.9097412001953122 0.7231979999999999 Q 2.9097412001953122 0.749412 2.9035732001953125 0.7787099999999999 L 2.8943212001953125 0.8265119999999999 Q 2.8696492001953127 0.9591239999999999 2.7763582001953124 1.0346819999999999 Q 2.6830672001953126 1.11024 2.5165312001953124 1.11024 L 2.0015032001953124 1.11024 L 2.1973372001953124 0 L 2.6445172001953123 0 M 2.5057372001953127 0.6568919999999999 L 2.3592472001953126 0.6568919999999999 L 2.3222392001953125 0.8696879999999999 L 2.4687292001953125 0.8696879999999999 Q 2.4718132001953124 0.8696879999999999 2.4748972001953127 0.8696879999999999 Q 2.5458292001953127 0.8696879999999999 2.5874632001953124 0.8365349999999999 Q 2.6290972001953126 0.8033819999999998 2.6290972001953126 0.7555799999999999 Q 2.6290972001953126 0.6568919999999999 2.5057372001953127 0.6568919999999999 M 2.5473712001953124 0.24055199999999988 L 2.4317212001953123 0.24055199999999988 L 2.3916292001953128 0.4703099999999999 L 2.5057372001953127 0.4703099999999999 Q 2.6537692001953124 0.4703099999999999 2.6537692001953124 0.3407819999999999 Q 2.6537692001953124 0.2960639999999999 2.6267842001953126 0.2683079999999999 Q 2.5997992001953127 0.24055199999999988 2.5473712001953124 0.24055199999999988 M 3.5526987304687503 1.11024 L 3.56195073046875 0.8681459999999999 L 3.3044367304687503 0.8681459999999999 L 3.2288787304687503 1.11024 L 2.93435673046875 1.11024 L 3.3306507304687503 0 L 3.83951073046875 0 L 3.84567873046875 1.11024 L 3.5526987304687503 1.11024 M 3.48947673046875 0.2698499999999999 L 3.36765873046875 0.6615179999999998 L 3.56966073046875 0.6615179999999998 L 3.58662273046875 0.2698499999999999 L 3.48947673046875 0.2698499999999999 M 4.635169177734375 0 Q 4.810957177734375 0 4.884973177734375 0.07709999999999995 Q 4.9404851777343755 0.13569599999999993 4.9404851777343755 0.2251319999999999 Q 4.9404851777343755 0.25597199999999987 4.934317177734375 0.28989599999999993 L 4.920439177734375 0.3639119999999999 Q 4.903477177734375 0.45180599999999993 4.854904177734375 0.5011499999999999 Q 4.806331177734375 0.5504939999999999 4.769323177734376 0.5504939999999999 L 4.767781177734375 0.5628299999999999 Q 4.810957177734375 0.5628299999999999 4.855675177734375 0.6106319999999998 Q 4.900393177734375 0.658434 4.900393177734375 0.7231979999999999 Q 4.900393177734375 0.749412 4.894225177734375 0.7787099999999999 L 4.884973177734375 0.8265119999999999 Q 4.860301177734375 0.9591239999999999 4.767010177734376 1.0346819999999999 Q 4.673719177734375 1.11024 4.507183177734375 1.11024 L 3.992155177734375 1.11024 L 4.187989177734376 0 L 4.635169177734375 0 M 4.496389177734375 0.6568919999999999 L 4.349899177734375 0.6568919999999999 L 4.312891177734375 0.8696879999999999 L 4.459381177734375 0.8696879999999999 Q 4.462465177734376 0.8696879999999999 4.465549177734375 0.8696879999999999 Q 4.536481177734375 0.8696879999999999 4.578115177734375 0.8365349999999999 Q 4.619749177734375 0.8033819999999998 4.619749177734375 0.7555799999999999 Q 4.619749177734375 0.6568919999999999 4.496389177734375 0.6568919999999999 M 4.538023177734376 0.24055199999999988 L 4.422373177734375 0.24055199999999988 L 4.3822811777343755 0.4703099999999999 L 4.496389177734375 0.4703099999999999 Q 4.644421177734375 0.4703099999999999 4.644421177734375 0.3407819999999999 Q 4.644421177734375 0.2960639999999999 4.617436177734375 0.2683079999999999 Q 4.5904511777343755 0.24055199999999988 4.538023177734376 0.24055199999999988 M 5.478616072265625 0 L 5.284324072265625 1.11024 L 5.005222072265625 1.11024 L 5.201056072265626 0 L 5.478616072265625 0" fill="#f9f9f9" fill-rule="nonzero"></path></g><g></g></g><defs><clipPath id="SvgjsClipPath82920"><path d=" M -3.103574187884293 -0.7841670939421467 h 2.6785741878842932 v 2.6785741878842932 h -2.6785741878842932 Z"></path></clipPath><mask id="maskedMgText-857ff593-b446-47cc-91e0-5589b7855269"><path d=" M -0.4249999999999998 0.5551200000000001 C -0.4249999999999998 1.2947879048204198 -1.0246191891217267 1.8944070939421467 -1.7642870939421464 1.8944070939421467 C -2.503954998762566 1.8944070939421467 -3.103574187884293 1.2947879048204198 -3.103574187884293 0.5551200000000001 C -3.103574187884293 -0.1845479048204196 -2.503954998762566 -0.7841670939421466 -1.7642870939421464 -0.7841670939421466 C -1.0246191891217267 -0.7841670939421466 -0.4249999999999998 -0.1845479048204196 -0.4249999999999998 0.5551200000000001 Z" fill="#ffffff" transform="matrix(1,0,0,1,0,0)" fill-rule="nonzero"></path><path d=" M -0.47402987891956894 1.7665388456992905 L -1.4277818590256768 1.8896036173258852 L -1.5431550824256093 1.455031142519473 L -1.9815733313453525 1.455031142519473 L -2.0777176841786296 1.8896036173258852 L -3.0583900830780553 1.7934592644926082 L -2.29308103452517 -0.7678262949858916 L -1.2239558310191296 -0.8216671325725269 L -0.47402987891956894 1.7665388456992905 M -1.6123790164655687 0.8666277031798175 L -1.7585184327721497 0.1974630074602095 L -1.9008120749653998 0.8666277031798175 L -1.6123790164655687 0.8666277031798175" fill="NA" transform="matrix(1,0,0,1,0,0)" fill-rule="nonzero"></path></mask></defs></svg>